<?xml version="1.0" encoding="UTF-8" standalone="no"?>
<!-- Created with Inkscape (http://www.inkscape.org/) -->

<svg
   xmlns:osb="http://www.openswatchbook.org/uri/2009/osb"
   xmlns:dc="http://purl.org/dc/elements/1.1/"
   xmlns:cc="http://creativecommons.org/ns#"
   xmlns:rdf="http://www.w3.org/1999/02/22-rdf-syntax-ns#"
   xmlns:svg="http://www.w3.org/2000/svg"
   xmlns="http://www.w3.org/2000/svg"
   xmlns:sodipodi="http://sodipodi.sourceforge.net/DTD/sodipodi-0.dtd"
   xmlns:inkscape="http://www.inkscape.org/namespaces/inkscape"
   version="1.1"
   id="svg4485"
   width="200"
   height="50"
   viewBox="0 0 200 50"
   sodipodi:docname="button-bg-ber.svg"
   inkscape:version="0.92.1 r15371">
  <metadata
     id="metadata4491">
    <rdf:RDF>
      <cc:Work
         rdf:about="">
        <dc:format>image/svg+xml</dc:format>
        <dc:type
           rdf:resource="http://purl.org/dc/dcmitype/StillImage" />
        <dc:title></dc:title>
      </cc:Work>
    </rdf:RDF>
  </metadata>
  <defs
     id="defs4489">
    <linearGradient
       id="linearGradient4497"
       osb:paint="solid">
      <stop
         style="stop-color:#f300ff;stop-opacity:1;"
         offset="0"
         id="stop4495" />
    </linearGradient>
  </defs>
  <sodipodi:namedview
     pagecolor="#ffffff"
     bordercolor="#666666"
     borderopacity="1"
     objecttolerance="10"
     gridtolerance="10"
     guidetolerance="10"
     inkscape:pageopacity="0"
     inkscape:pageshadow="2"
     inkscape:window-width="1920"
     inkscape:window-height="1017"
     id="namedview4487"
     showgrid="false"
     inkscape:zoom="2.5455844"
     inkscape:cx="136.88129"
     inkscape:cy="-19.823833"
     inkscape:window-x="-8"
     inkscape:window-y="-8"
     inkscape:window-maximized="1"
     inkscape:current-layer="svg4485" />
  <path
     style="fill:#ff0000;fill-opacity:0.82412056;stroke-width:1.03510261"
     d="M 77.296651,-0.04877228 C 49.825891,0.03360179 29.736086,0.39432234 20.125325,0.99584831 L 0.05719387,2.2514412 -0.67513224,18.760542 C -1.3727873,34.503159 -0.83150877,46.296577 0.7057116,48.84971 c 0.3905867,0.648716 3.2293126,1.388945 6.307583,1.646814 3.0782714,0.257869 25.8261704,0.228254 50.5504604,-0.06555 24.724288,-0.293798 66.594785,-0.446731 93.047315,-0.340014 41.54603,0.167627 48.26853,-0.01884 49.36119,-1.370296 0.69571,-0.860462 1.72766,-6.301224 2.29276,-12.09097 0.90389,-9.260906 0.76417,-11.886243 -1.15337,-21.834619 C 199.91283,8.5755368 198.73779,2.7786674 198.49963,1.9134758 198.00432,0.11420336 206.45194,0.29528013 107.1145,-0.03648258 96.432293,-0.07215844 86.453572,-0.07623055 77.296651,-0.04877228 Z"
     id="path4501"
     inkscape:connector-curvature="0" />
</svg>
