<?xml version="1.0" encoding="UTF-8" standalone="no"?>
<!-- Created with Inkscape (http://www.inkscape.org/) -->

<svg
   xmlns:osb="http://www.openswatchbook.org/uri/2009/osb"
   xmlns:dc="http://purl.org/dc/elements/1.1/"
   xmlns:cc="http://creativecommons.org/ns#"
   xmlns:rdf="http://www.w3.org/1999/02/22-rdf-syntax-ns#"
   xmlns:svg="http://www.w3.org/2000/svg"
   xmlns="http://www.w3.org/2000/svg"
   xmlns:sodipodi="http://sodipodi.sourceforge.net/DTD/sodipodi-0.dtd"
   xmlns:inkscape="http://www.inkscape.org/namespaces/inkscape"
   version="1.1"
   id="svg4485"
   width="200"
   height="50"
   viewBox="0 0 200 50"
   sodipodi:docname="button-bg-ber.svg"
   inkscape:version="0.92.1 r15371">
  <metadata
     id="metadata4491">
    <rdf:RDF>
      <cc:Work
         rdf:about="">
        <dc:format>image/svg+xml</dc:format>
        <dc:type
           rdf:resource="http://purl.org/dc/dcmitype/StillImage" />
        <dc:title></dc:title>
      </cc:Work>
    </rdf:RDF>
  </metadata>
  <defs
     id="defs4489">
    <linearGradient
       id="linearGradient4497"
       osb:paint="solid">
      <stop
         style="stop-color:#f300ff;stop-opacity:1;"
         offset="0"
         id="stop4495" />
    </linearGradient>
  </defs>
  <sodipodi:namedview
     pagecolor="#ffffff"
     bordercolor="#666666"
     borderopacity="1"
     objecttolerance="10"
     gridtolerance="10"
     guidetolerance="10"
     inkscape:pageopacity="0"
     inkscape:pageshadow="2"
     inkscape:window-width="1920"
     inkscape:window-height="1017"
     id="namedview4487"
     showgrid="false"
     inkscape:zoom="2.5455844"
     inkscape:cx="136.88129"
     inkscape:cy="-19.823833"
     inkscape:window-x="-8"
     inkscape:window-y="-8"
     inkscape:window-maximized="1"
     inkscape:current-layer="svg4485" />
  <path
     style="fill:#00ffff;fill-opacity:0.82412056;stroke-width:1.02810192"
     d="M 77.236818,-0.04891109 C 49.924929,0.03282522 29.951309,0.39075295 20.39613,0.98762171 L 0.44405897,2.2334934 -0.28403188,18.614776 C -0.9776522,34.235508 -0.43950404,45.937617 1.0888261,48.470983 1.477154,49.114676 4.2994627,49.849175 7.3599305,50.105047 10.4204,50.36092 33.036741,50.331533 57.618042,50.039997 82.199343,49.748474 123.8277,49.596725 150.12723,49.702616 c 41.30577,0.166329 47.98938,-0.01869 49.07573,-1.359687 0.69168,-0.8538 1.71767,-6.252438 2.2795,-11.997358 0.89866,-9.189205 0.75974,-11.794215 -1.1467,-21.665568 C 199.14387,8.5086257 197.97563,2.7566376 197.73884,1.8981446 197.24639,0.11280274 205.64516,0.29247756 106.88223,-0.03671653 96.261793,-0.07211618 86.340782,-0.07615676 77.236818,-0.04891109 Z"
     id="path4501"
     inkscape:connector-curvature="0" />
</svg>
