<?xml version="1.0" encoding="UTF-8" standalone="no"?>
<!-- Created with Inkscape (http://www.inkscape.org/) -->

<svg
   xmlns:osb="http://www.openswatchbook.org/uri/2009/osb"
   xmlns:dc="http://purl.org/dc/elements/1.1/"
   xmlns:cc="http://creativecommons.org/ns#"
   xmlns:rdf="http://www.w3.org/1999/02/22-rdf-syntax-ns#"
   xmlns:svg="http://www.w3.org/2000/svg"
   xmlns="http://www.w3.org/2000/svg"
   xmlns:sodipodi="http://sodipodi.sourceforge.net/DTD/sodipodi-0.dtd"
   xmlns:inkscape="http://www.inkscape.org/namespaces/inkscape"
   version="1.1"
   id="svg4485"
   width="200"
   height="50"
   viewBox="0 0 200 50"
   sodipodi:docname="button-bg-ber.svg"
   inkscape:version="0.92.1 r15371">
  <metadata
     id="metadata4491">
    <rdf:RDF>
      <cc:Work
         rdf:about="">
        <dc:format>image/svg+xml</dc:format>
        <dc:type
           rdf:resource="http://purl.org/dc/dcmitype/StillImage" />
        <dc:title></dc:title>
      </cc:Work>
    </rdf:RDF>
  </metadata>
  <defs
     id="defs4489">
    <linearGradient
       id="linearGradient4497"
       osb:paint="solid">
      <stop
         style="stop-color:#f300ff;stop-opacity:1;"
         offset="0"
         id="stop4495" />
    </linearGradient>
  </defs>
  <sodipodi:namedview
     pagecolor="#ffffff"
     bordercolor="#666666"
     borderopacity="1"
     objecttolerance="10"
     gridtolerance="10"
     guidetolerance="10"
     inkscape:pageopacity="0"
     inkscape:pageshadow="2"
     inkscape:window-width="1920"
     inkscape:window-height="1017"
     id="namedview4487"
     showgrid="false"
     inkscape:zoom="2.5455844"
     inkscape:cx="136.88129"
     inkscape:cy="-19.823833"
     inkscape:window-x="-8"
     inkscape:window-y="-8"
     inkscape:window-maximized="1"
     inkscape:current-layer="svg4485" />
  <path
     style="fill:#ffff53;fill-opacity:0.82412056;stroke-width:1.03809142"
     d="M 77.749322,-0.04877228 C 50.11969,0.03360179 29.9137,0.39432234 20.247357,0.99584831 L 0.06316587,2.2514412 -0.6733955,18.760542 C -1.3750853,34.503159 -0.8306764,46.296577 0.71543417,48.84971 1.1082797,49.498426 3.9634228,50.238655 7.0594958,50.496524 10.15557,50.754393 33.035027,50.724778 57.902304,50.430974 82.76958,50.137176 124.88223,49.984243 151.48774,50.09096 c 41.7863,0.167627 48.54768,-0.01884 49.64666,-1.370296 0.69973,-0.860462 1.73765,-6.301224 2.30602,-12.09097 0.90912,-9.260906 0.76859,-11.886243 -1.16004,-21.834619 C 201.07463,8.5755368 199.89279,2.7786674 199.65325,1.9134758 199.15508,0.11420336 207.65155,0.29528013 107.73962,-0.03648258 96.995631,-0.07215844 86.9592,-0.07623055 77.749322,-0.04877228 Z"
     id="path4501"
     inkscape:connector-curvature="0" />
</svg>
